<svg width="400" height="400" viewBox="0 0 400 400" fill="none" xmlns="http://www.w3.org/2000/svg">
<rect width="400" height="400" rx="100" fill="white"/>
<rect width="400" height="400" rx="100" fill="url(#paint0_linear_1_11)"/>
<path fill-rule="evenodd" clip-rule="evenodd" d="M138.461 178.858C138.461 158.504 121.917 141.979 101.538 141.979C81.1597 141.979 64.6151 158.504 64.6151 178.858V228.064H40V178.858C40 144.934 67.5741 117.393 101.538 117.393C121.572 117.393 139.381 126.974 150.621 141.796C161.843 126.751 179.791 117 200 117C220.121 117 237.999 126.666 249.231 141.599C260.462 126.666 278.341 117 298.461 117C332.425 117 360 144.541 360 178.465V227.671H335.384V178.465C335.384 158.111 318.84 141.586 298.461 141.586C278.083 141.586 261.538 158.111 261.538 178.465V225.406C261.538 226.007 261.299 226.583 260.874 227.008C260.449 227.432 259.872 227.671 259.27 227.671C254.583 227.671 243.878 227.671 239.191 227.671C238.589 227.671 238.013 227.432 237.587 227.008C237.162 226.583 236.923 226.007 236.923 225.406C236.923 215.743 236.923 178.465 236.923 178.465C236.923 158.111 220.378 141.586 200 141.586C179.621 141.586 163.077 158.111 163.077 178.465V225.799C163.077 227.05 162.061 228.064 160.809 228.064C156.122 228.064 145.416 228.064 140.729 228.064C140.128 228.064 139.551 227.825 139.126 227.401C138.7 226.976 138.461 226.399 138.461 225.799C138.461 216.136 138.461 178.858 138.461 178.858ZM212.308 221.935C212.308 242.289 228.852 258.814 249.231 258.814C269.609 258.814 286.154 242.289 286.154 221.935V172.728H310.769V221.935C310.769 255.858 283.195 283.4 249.231 283.4C229.109 283.4 211.231 273.733 200 258.801C188.769 273.733 170.89 283.4 150.769 283.4C116.805 283.4 89.2306 255.858 89.2306 221.935V172.728H113.846V221.935C113.846 242.289 130.391 258.814 150.769 258.814C171.148 258.814 187.692 242.289 187.692 221.935V172.728H212.308V221.935Z" fill="black"/>
<defs>
<linearGradient id="paint0_linear_1_11" x1="0" y1="0" x2="473.623" y2="128.374" gradientUnits="userSpaceOnUse">
<stop stop-color="#FFD83A"/>
<stop offset="0.5" stop-color="#DD8AFF"/>
<stop offset="1" stop-color="#74C3FF"/>
</linearGradient>
</defs>
</svg>
