<svg width="505" height="109" viewBox="0 0 505 109" fill="none" xmlns="http://www.w3.org/2000/svg">
<path d="M18.6102 57.8474V105.852H-0.00183105V24.6931H18.6102V46.9686H18.7825C22.4015 29.7007 32.7415 22.6209 46.3559 22.6209C63.9339 22.6209 71.6889 32.9816 73.0675 48.0047H73.2399C76.5142 29.8734 85.8202 22.6209 100.641 22.6209C120.459 22.6209 127.697 35.3991 127.697 53.0124V105.852H109.258V57.8474C109.258 48.0047 104.777 39.3708 92.1965 39.3708C80.3055 39.3708 73.2399 46.2779 73.2399 57.8474V105.852H54.6279V57.8474C54.6279 48.0047 50.3195 39.3708 37.7392 39.3708C25.8482 39.3708 18.6102 46.2779 18.6102 57.8474Z" fill="black"/>
<path d="M203.975 24.6931L212.247 56.466C215.521 68.2081 218.279 80.4683 221.036 93.0738H221.381C224.138 80.4683 227.068 69.0715 230.342 56.1206L237.925 24.6931H256.364L231.893 105.852H209.317L200.184 70.4529C197.426 59.5742 195.186 48.6954 193.118 37.4713H192.773C190.705 48.5227 188.12 59.7468 185.535 70.4529L176.919 105.852H154.515L129.872 24.6931H149.001L157.617 56.1206C161.236 68.8988 164.166 80.641 166.751 93.0738H167.096C169.853 80.4683 172.61 68.2081 175.712 56.466L183.812 24.6931H203.975Z" fill="black"/>
<path d="M277.783 57.8474V105.852H259.171V24.6931H277.783V46.9686H277.956C281.575 29.7007 291.915 22.6209 305.529 22.6209C323.107 22.6209 330.862 32.9816 332.241 48.0047H332.413C335.687 29.8734 344.993 22.6209 359.814 22.6209C379.632 22.6209 386.87 35.3991 386.87 53.0124V105.852H368.431V57.8474C368.431 48.0047 363.95 39.3708 351.37 39.3708C339.479 39.3708 332.413 46.2779 332.413 57.8474V105.852H313.801V57.8474C313.801 48.0047 309.493 39.3708 296.912 39.3708C285.021 39.3708 277.783 46.2779 277.783 57.8474Z" fill="black"/>
<path d="M438.677 91.3471C452.636 91.3471 459.529 81.5044 459.529 64.9272C459.529 48.6954 452.98 39.3708 438.677 39.3708C425.235 39.3708 416.963 48.35 416.963 64.4092V65.7906C416.963 81.3317 425.235 91.3471 438.677 91.3471ZM416.963 0V47.6593H417.307C421.099 31.2549 430.405 22.6209 446.26 22.6209C467.112 22.6209 477.969 38.68 477.969 64.9272C477.969 91.8651 466.595 108.097 446.087 108.097C429.888 108.097 420.926 99.2903 417.307 82.7131H416.963V105.852H398.351V0H416.963Z" fill="black"/>
<path d="M504.812 0V105.852H486.2V0H504.812Z" fill="black"/>
</svg>
